<mxfile host="Electron" agent="Mozilla/5.0 (Windows NT 10.0; Win64; x64) AppleWebKit/537.36 (KHTML, like Gecko) draw.io/26.2.2 Chrome/134.0.6998.178 Electron/35.1.2 Safari/537.36" version="26.2.2">
  <diagram name="Page-1" id="bPuFZjUi1AL_pEAQR9ox">
    <mxGraphModel dx="664" dy="391" grid="1" gridSize="10" guides="1" tooltips="1" connect="1" arrows="1" fold="1" page="1" pageScale="1" pageWidth="1654" pageHeight="1169" math="0" shadow="0">
      <root>
        <mxCell id="0" />
        <mxCell id="1" parent="0" />
        <mxCell id="0TyT_RYLDZ_SMIHeVWue-1" value="&lt;font face=&quot;Comic Sans MS&quot;&gt;Joueur&lt;/font&gt;" style="swimlane;fontStyle=0;childLayout=stackLayout;horizontal=1;startSize=26;fillColor=#fff2cc;horizontalStack=0;resizeParent=1;resizeParentMax=0;resizeLast=0;collapsible=1;marginBottom=0;whiteSpace=wrap;html=1;strokeColor=#d6b656;" parent="1" vertex="1">
          <mxGeometry x="40" y="40" width="200" height="182" as="geometry" />
        </mxCell>
        <mxCell id="0TyT_RYLDZ_SMIHeVWue-2" value="&lt;font style=&quot;&quot; face=&quot;Comic Sans MS&quot;&gt;- nom : String&lt;/font&gt;" style="text;strokeColor=none;fillColor=none;align=left;verticalAlign=top;spacingLeft=4;spacingRight=4;overflow=hidden;rotatable=0;points=[[0,0.5],[1,0.5]];portConstraint=eastwest;whiteSpace=wrap;html=1;" parent="0TyT_RYLDZ_SMIHeVWue-1" vertex="1">
          <mxGeometry y="26" width="200" height="26" as="geometry" />
        </mxCell>
        <mxCell id="0TyT_RYLDZ_SMIHeVWue-3" value="&lt;font face=&quot;Comic Sans MS&quot;&gt;- prenom : String&lt;/font&gt;" style="text;strokeColor=none;fillColor=none;align=left;verticalAlign=top;spacingLeft=4;spacingRight=4;overflow=hidden;rotatable=0;points=[[0,0.5],[1,0.5]];portConstraint=eastwest;whiteSpace=wrap;html=1;" parent="0TyT_RYLDZ_SMIHeVWue-1" vertex="1">
          <mxGeometry y="52" width="200" height="26" as="geometry" />
        </mxCell>
        <mxCell id="0TyT_RYLDZ_SMIHeVWue-4" value="&lt;font face=&quot;Comic Sans MS&quot;&gt;- naissance : Date&lt;/font&gt;" style="text;strokeColor=none;fillColor=none;align=left;verticalAlign=top;spacingLeft=4;spacingRight=4;overflow=hidden;rotatable=0;points=[[0,0.5],[1,0.5]];portConstraint=eastwest;whiteSpace=wrap;html=1;" parent="0TyT_RYLDZ_SMIHeVWue-1" vertex="1">
          <mxGeometry y="78" width="200" height="26" as="geometry" />
        </mxCell>
        <mxCell id="0TyT_RYLDZ_SMIHeVWue-6" value="&lt;font face=&quot;Comic Sans MS&quot;&gt;- nationalite : String&lt;/font&gt;" style="text;strokeColor=none;fillColor=none;align=left;verticalAlign=top;spacingLeft=4;spacingRight=4;overflow=hidden;rotatable=0;points=[[0,0.5],[1,0.5]];portConstraint=eastwest;whiteSpace=wrap;html=1;" parent="0TyT_RYLDZ_SMIHeVWue-1" vertex="1">
          <mxGeometry y="104" width="200" height="26" as="geometry" />
        </mxCell>
        <mxCell id="0TyT_RYLDZ_SMIHeVWue-5" value="&lt;font face=&quot;Comic Sans MS&quot;&gt;- taille : int&lt;/font&gt;" style="text;strokeColor=none;fillColor=none;align=left;verticalAlign=top;spacingLeft=4;spacingRight=4;overflow=hidden;rotatable=0;points=[[0,0.5],[1,0.5]];portConstraint=eastwest;whiteSpace=wrap;html=1;" parent="0TyT_RYLDZ_SMIHeVWue-1" vertex="1">
          <mxGeometry y="130" width="200" height="26" as="geometry" />
        </mxCell>
        <mxCell id="0TyT_RYLDZ_SMIHeVWue-8" value="&lt;font face=&quot;Comic Sans MS&quot;&gt;- poids : int&lt;/font&gt;" style="text;strokeColor=none;fillColor=none;align=left;verticalAlign=top;spacingLeft=4;spacingRight=4;overflow=hidden;rotatable=0;points=[[0,0.5],[1,0.5]];portConstraint=eastwest;whiteSpace=wrap;html=1;" parent="0TyT_RYLDZ_SMIHeVWue-1" vertex="1">
          <mxGeometry y="156" width="200" height="26" as="geometry" />
        </mxCell>
        <mxCell id="2" value="&lt;font face=&quot;Comic Sans MS&quot;&gt;Position&lt;/font&gt;" style="swimlane;fontStyle=0;childLayout=stackLayout;horizontal=1;startSize=26;fillColor=#fff2cc;horizontalStack=0;resizeParent=1;resizeParentMax=0;resizeLast=0;collapsible=1;marginBottom=0;whiteSpace=wrap;html=1;strokeColor=#d6b656;" parent="1" vertex="1">
          <mxGeometry x="400" y="79" width="200" height="104" as="geometry" />
        </mxCell>
        <mxCell id="9" value="&lt;font style=&quot;&quot; face=&quot;Comic Sans MS&quot;&gt;- nom : String&lt;/font&gt;" style="text;strokeColor=none;fillColor=none;align=left;verticalAlign=top;spacingLeft=4;spacingRight=4;overflow=hidden;rotatable=0;points=[[0,0.5],[1,0.5]];portConstraint=eastwest;whiteSpace=wrap;html=1;" parent="2" vertex="1">
          <mxGeometry y="26" width="200" height="26" as="geometry" />
        </mxCell>
        <mxCell id="10" value="&lt;font style=&quot;&quot; face=&quot;Comic Sans MS&quot;&gt;- abreviation : String&lt;/font&gt;" style="text;strokeColor=none;fillColor=none;align=left;verticalAlign=top;spacingLeft=4;spacingRight=4;overflow=hidden;rotatable=0;points=[[0,0.5],[1,0.5]];portConstraint=eastwest;whiteSpace=wrap;html=1;" parent="2" vertex="1">
          <mxGeometry y="52" width="200" height="26" as="geometry" />
        </mxCell>
        <mxCell id="11" value="&lt;font style=&quot;&quot; face=&quot;Comic Sans MS&quot;&gt;- zone : String&lt;/font&gt;" style="text;strokeColor=none;fillColor=none;align=left;verticalAlign=top;spacingLeft=4;spacingRight=4;overflow=hidden;rotatable=0;points=[[0,0.5],[1,0.5]];portConstraint=eastwest;whiteSpace=wrap;html=1;" parent="2" vertex="1">
          <mxGeometry y="78" width="200" height="26" as="geometry" />
        </mxCell>
        <mxCell id="Eg1cmbTTBJbZFbh08boU-15" style="edgeStyle=orthogonalEdgeStyle;rounded=0;orthogonalLoop=1;jettySize=auto;html=1;entryX=0;entryY=0.5;entryDx=0;entryDy=0;endArrow=none;startFill=0;" edge="1" parent="1" source="0TyT_RYLDZ_SMIHeVWue-4" target="9">
          <mxGeometry relative="1" as="geometry">
            <Array as="points">
              <mxPoint x="280" y="118" />
              <mxPoint x="280" y="118" />
            </Array>
          </mxGeometry>
        </mxCell>
        <mxCell id="Eg1cmbTTBJbZFbh08boU-17" value="&lt;font style=&quot;font-size: 9px;&quot; face=&quot;Comic Sans MS&quot;&gt;Est position principal&lt;/font&gt;" style="edgeLabel;html=1;align=center;verticalAlign=middle;resizable=0;points=[];" vertex="1" connectable="0" parent="Eg1cmbTTBJbZFbh08boU-15">
          <mxGeometry x="0.15" relative="1" as="geometry">
            <mxPoint x="-12" as="offset" />
          </mxGeometry>
        </mxCell>
        <mxCell id="Eg1cmbTTBJbZFbh08boU-16" style="edgeStyle=orthogonalEdgeStyle;rounded=0;orthogonalLoop=1;jettySize=auto;html=1;entryX=0;entryY=0.5;entryDx=0;entryDy=0;endArrow=none;startFill=0;" edge="1" parent="1" source="0TyT_RYLDZ_SMIHeVWue-5" target="11">
          <mxGeometry relative="1" as="geometry">
            <Array as="points">
              <mxPoint x="280" y="170" />
              <mxPoint x="280" y="170" />
            </Array>
          </mxGeometry>
        </mxCell>
        <mxCell id="Eg1cmbTTBJbZFbh08boU-18" value="&lt;font face=&quot;Comic Sans MS&quot; style=&quot;font-size: 9px;&quot;&gt;Est position secondaire&lt;/font&gt;" style="edgeLabel;html=1;align=center;verticalAlign=middle;resizable=0;points=[];" vertex="1" connectable="0" parent="Eg1cmbTTBJbZFbh08boU-16">
          <mxGeometry x="0.0425" relative="1" as="geometry">
            <mxPoint as="offset" />
          </mxGeometry>
        </mxCell>
        <mxCell id="Eg1cmbTTBJbZFbh08boU-20" value="&lt;font face=&quot;Comic Sans MS&quot; style=&quot;font-size: 6px;&quot;&gt;0..*&lt;/font&gt;" style="text;html=1;align=center;verticalAlign=middle;whiteSpace=wrap;rounded=0;" vertex="1" parent="1">
          <mxGeometry x="240" y="100" width="20" height="18" as="geometry" />
        </mxCell>
        <mxCell id="Eg1cmbTTBJbZFbh08boU-23" value="&lt;font face=&quot;Comic Sans MS&quot; style=&quot;font-size: 6px;&quot;&gt;1&lt;/font&gt;" style="text;html=1;align=center;verticalAlign=middle;whiteSpace=wrap;rounded=0;" vertex="1" parent="1">
          <mxGeometry x="380" y="100" width="20" height="18" as="geometry" />
        </mxCell>
        <mxCell id="Eg1cmbTTBJbZFbh08boU-24" value="&lt;font face=&quot;Comic Sans MS&quot; style=&quot;font-size: 6px;&quot;&gt;0..2&lt;/font&gt;" style="text;html=1;align=center;verticalAlign=middle;whiteSpace=wrap;rounded=0;" vertex="1" parent="1">
          <mxGeometry x="380" y="152" width="20" height="18" as="geometry" />
        </mxCell>
        <mxCell id="Eg1cmbTTBJbZFbh08boU-26" value="&lt;font face=&quot;Comic Sans MS&quot; style=&quot;font-size: 6px;&quot;&gt;0..*&lt;/font&gt;" style="text;html=1;align=center;verticalAlign=middle;whiteSpace=wrap;rounded=0;" vertex="1" parent="1">
          <mxGeometry x="240" y="152" width="20" height="18" as="geometry" />
        </mxCell>
      </root>
    </mxGraphModel>
  </diagram>
</mxfile>
